<svg width="353" height="141" viewBox="0 0 353 141" fill="none" xmlns="http://www.w3.org/2000/svg">
<path d="M118.5 11H66C61.8576 11 58.5 14.3578 58.5 18.5C58.5 22.6422 61.8576 26 66 26H118.5C122.642 26 126 22.6422 126 18.5C126 14.3578 122.642 11 118.5 11Z" fill="black"/>
<path d="M66 116H13.5C9.35784 116 6 119.358 6 123.5C6 127.642 9.35784 131 13.5 131H66C70.1424 131 73.5 127.642 73.5 123.5C73.5 119.358 70.1424 116 66 116Z" fill="black"/>
<path d="M126 71C126 104.137 99.1374 131 66 131C32.8629 131 6 104.137 6 71C6 37.8629 32.8629 11 66 11C99.1374 11 126 37.8629 126 71ZM21 71C21 95.8526 41.1474 116 66 116C90.8526 116 111 95.8526 111 71C111 46.1474 90.8526 26 66 26C41.1474 26 21 46.1474 21 71Z" fill="black"/>
<path d="M66 42.2L91.9812 56.6V85.4L66 99.8L40.0194 85.4V56.6L66 42.2Z" fill="black"/>
<path d="M157.545 76H141.045V29.4545H157.682C162.364 29.4545 166.394 30.3864 169.773 32.25C173.152 34.0985 175.75 36.7576 177.568 40.2273C179.402 43.697 180.318 47.8485 180.318 52.6818C180.318 57.5303 179.402 61.697 177.568 65.1818C175.75 68.6667 173.136 71.3409 169.727 73.2045C166.333 75.0682 162.273 76 157.545 76ZM150.886 67.5682H157.136C160.045 67.5682 162.492 67.053 164.477 66.0227C166.477 64.9773 167.977 63.3636 168.977 61.1818C169.992 58.9848 170.5 56.1515 170.5 52.6818C170.5 49.2424 169.992 46.4318 168.977 44.25C167.977 42.0682 166.485 40.4621 164.5 39.4318C162.515 38.4015 160.068 37.8864 157.159 37.8864H150.886V67.5682ZM184.408 76V29.4545H202.772C206.287 29.4545 209.287 30.0833 211.772 31.3409C214.272 32.5833 216.173 34.3485 217.476 36.6364C218.794 38.9091 219.453 41.5833 219.453 44.6591C219.453 47.75 218.787 50.4091 217.453 52.6364C216.12 54.8485 214.188 56.5455 211.658 57.7273C209.143 58.9091 206.097 59.5 202.522 59.5H190.226V51.5909H200.931C202.809 51.5909 204.37 51.3333 205.612 50.8182C206.855 50.303 207.779 49.5303 208.385 48.5C209.006 47.4697 209.317 46.1894 209.317 44.6591C209.317 43.1136 209.006 41.8106 208.385 40.75C207.779 39.6894 206.847 38.8864 205.59 38.3409C204.347 37.7803 202.779 37.5 200.885 37.5H194.249V76H184.408ZM209.544 54.8182L221.112 76H210.249L198.931 54.8182H209.544ZM265.981 52.7273C265.981 57.803 265.019 62.1212 263.094 65.6818C261.185 69.2424 258.579 71.9621 255.276 73.8409C251.988 75.7045 248.291 76.6364 244.185 76.6364C240.049 76.6364 236.337 75.697 233.049 73.8182C229.761 71.9394 227.162 69.2197 225.253 65.6591C223.344 62.0985 222.39 57.7879 222.39 52.7273C222.39 47.6515 223.344 43.3333 225.253 39.7727C227.162 36.2121 229.761 33.5 233.049 31.6364C236.337 29.7576 240.049 28.8182 244.185 28.8182C248.291 28.8182 251.988 29.7576 255.276 31.6364C258.579 33.5 261.185 36.2121 263.094 39.7727C265.019 43.3333 265.981 47.6515 265.981 52.7273ZM256.003 52.7273C256.003 49.4394 255.511 46.6667 254.526 44.4091C253.556 42.1515 252.185 40.4394 250.412 39.2727C248.64 38.1061 246.564 37.5227 244.185 37.5227C241.806 37.5227 239.731 38.1061 237.958 39.2727C236.185 40.4394 234.806 42.1515 233.822 44.4091C232.852 46.6667 232.367 49.4394 232.367 52.7273C232.367 56.0152 232.852 58.7879 233.822 61.0455C234.806 63.303 236.185 65.0152 237.958 66.1818C239.731 67.3485 241.806 67.9318 244.185 67.9318C246.564 67.9318 248.64 67.3485 250.412 66.1818C252.185 65.0152 253.556 63.303 254.526 61.0455C255.511 58.7879 256.003 56.0152 256.003 52.7273ZM275.855 29.4545L287.105 64.8182H287.536L298.809 29.4545H309.718L293.673 76H280.991L264.923 29.4545H275.855ZM312.12 76V29.4545H343.484V37.5682H321.961V48.6591H341.87V56.7727H321.961V67.8864H343.575V76H312.12Z" fill="black"/>
<path d="M214.357 114.332C213.513 114.332 212.788 114.034 212.183 113.438C211.587 112.832 211.288 112.108 211.288 111.264C211.288 110.429 211.587 109.713 212.183 109.116C212.788 108.52 213.513 108.222 214.357 108.222C215.175 108.222 215.891 108.52 216.504 109.116C217.118 109.713 217.425 110.429 217.425 111.264C217.425 111.827 217.28 112.342 216.99 112.811C216.709 113.271 216.338 113.642 215.878 113.923C215.418 114.196 214.911 114.332 214.357 114.332ZM227.332 114.32C225.84 114.32 224.489 113.936 223.279 113.169C222.077 112.393 221.123 111.256 220.416 109.756C219.717 108.247 219.367 106.398 219.367 104.207C219.367 101.957 219.729 100.087 220.454 98.5952C221.178 97.0952 222.141 95.9744 223.343 95.233C224.553 94.483 225.879 94.108 227.319 94.108C228.418 94.108 229.335 94.2955 230.068 94.6705C230.809 95.0369 231.406 95.4972 231.857 96.0511C232.318 96.5966 232.667 97.1335 232.906 97.6619H233.072V87.8182H238.505V114H233.136V110.855H232.906C232.65 111.401 232.288 111.942 231.819 112.479C231.359 113.007 230.758 113.446 230.016 113.795C229.283 114.145 228.389 114.32 227.332 114.32ZM229.058 109.986C229.935 109.986 230.677 109.747 231.282 109.27C231.896 108.784 232.364 108.107 232.688 107.237C233.021 106.368 233.187 105.349 233.187 104.182C233.187 103.014 233.025 102 232.701 101.139C232.377 100.278 231.908 99.6136 231.295 99.1449C230.681 98.6761 229.935 98.4418 229.058 98.4418C228.163 98.4418 227.408 98.6847 226.795 99.1705C226.181 99.6562 225.717 100.33 225.401 101.19C225.086 102.051 224.928 103.048 224.928 104.182C224.928 105.324 225.086 106.334 225.401 107.212C225.725 108.081 226.19 108.763 226.795 109.257C227.408 109.743 228.163 109.986 229.058 109.986ZM250.132 114.384C248.112 114.384 246.373 113.974 244.916 113.156C243.467 112.33 242.35 111.162 241.566 109.653C240.782 108.136 240.39 106.342 240.39 104.271C240.39 102.251 240.782 100.479 241.566 98.9531C242.35 97.4276 243.454 96.2386 244.877 95.3864C246.309 94.5341 247.988 94.108 249.914 94.108C251.21 94.108 252.416 94.3168 253.532 94.7344C254.657 95.1435 255.637 95.7614 256.472 96.5881C257.316 97.4148 257.972 98.4545 258.441 99.7074C258.91 100.952 259.144 102.409 259.144 104.08V105.575H242.563V102.2H254.018C254.018 101.416 253.847 100.722 253.507 100.116C253.166 99.5114 252.693 99.0384 252.087 98.6974C251.491 98.348 250.796 98.1733 250.004 98.1733C249.177 98.1733 248.444 98.3651 247.805 98.7486C247.174 99.1236 246.68 99.6307 246.322 100.27C245.964 100.901 245.781 101.604 245.772 102.379V105.588C245.772 106.56 245.951 107.399 246.309 108.107C246.676 108.814 247.191 109.359 247.856 109.743C248.521 110.126 249.309 110.318 250.221 110.318C250.826 110.318 251.38 110.233 251.883 110.062C252.386 109.892 252.816 109.636 253.174 109.295C253.532 108.955 253.805 108.537 253.992 108.043L259.029 108.375C258.774 109.585 258.249 110.642 257.457 111.545C256.673 112.44 255.659 113.139 254.414 113.642C253.178 114.136 251.751 114.384 250.132 114.384ZM278.678 94.3636L271.813 114H265.676L258.811 94.3636H264.564L268.642 108.413H268.847L272.912 94.3636H278.678Z" fill="black"/>
<line x1="141" y1="100" x2="201.008" y2="100" stroke="black" stroke-width="2"/>
<line x1="285.004" y1="100.5" x2="345.012" y2="100.5" stroke="black" stroke-width="2"/>
</svg>
