<svg width="250" height="250" viewBox="0 0 250 250" fill="none" xmlns="http://www.w3.org/2000/svg">
<path d="M182.75 11H125C120.443 11 116.75 14.6936 116.75 19.25C116.75 23.8064 120.443 27.5 125 27.5H182.75C187.307 27.5 191 23.8064 191 19.25C191 14.6936 187.307 11 182.75 11Z" fill="black"/>
<path d="M125 126.5H67.25C62.6936 126.5 59 130.193 59 134.75C59 139.307 62.6936 143 67.25 143H125C129.557 143 133.25 139.307 133.25 134.75C133.25 130.193 129.557 126.5 125 126.5Z" fill="black"/>
<path d="M191 77C191 113.451 161.451 143 125 143C88.5492 143 59 113.451 59 77C59 40.5492 88.5492 11 125 11C161.451 11 191 40.5492 191 77ZM75.5 77C75.5 104.338 97.6621 126.5 125 126.5C152.338 126.5 174.5 104.338 174.5 77C174.5 49.6621 152.338 27.5 125 27.5C97.6621 27.5 75.5 49.6621 75.5 77Z" fill="black"/>
<path d="M125 45.32L153.579 61.16V92.84L125 108.68L96.4213 92.84V61.16L125 45.32Z" fill="black"/>
<path d="M37.5455 201H21.0455V154.455H37.6818C42.3636 154.455 46.3939 155.386 49.7727 157.25C53.1515 159.098 55.75 161.758 57.5682 165.227C59.4015 168.697 60.3182 172.848 60.3182 177.682C60.3182 182.53 59.4015 186.697 57.5682 190.182C55.75 193.667 53.1364 196.341 49.7273 198.205C46.3333 200.068 42.2727 201 37.5455 201ZM30.8864 192.568H37.1364C40.0455 192.568 42.4924 192.053 44.4773 191.023C46.4773 189.977 47.9773 188.364 48.9773 186.182C49.9924 183.985 50.5 181.152 50.5 177.682C50.5 174.242 49.9924 171.432 48.9773 169.25C47.9773 167.068 46.4848 165.462 44.5 164.432C42.5152 163.402 40.0682 162.886 37.1591 162.886H30.8864V192.568ZM64.408 201V154.455H82.7716C86.2867 154.455 89.2867 155.083 91.7716 156.341C94.2716 157.583 96.1731 159.348 97.4761 161.636C98.7943 163.909 99.4534 166.583 99.4534 169.659C99.4534 172.75 98.7867 175.409 97.4534 177.636C96.1201 179.848 94.1883 181.545 91.658 182.727C89.1428 183.909 86.0973 184.5 82.5216 184.5H70.2261V176.591H80.9307C82.8095 176.591 84.3701 176.333 85.6125 175.818C86.8549 175.303 87.7792 174.53 88.3852 173.5C89.0064 172.47 89.317 171.189 89.317 169.659C89.317 168.114 89.0064 166.811 88.3852 165.75C87.7792 164.689 86.8473 163.886 85.5898 163.341C84.3473 162.78 82.7792 162.5 80.8852 162.5H74.2489V201H64.408ZM89.5443 179.818L101.112 201H90.2489L78.9307 179.818H89.5443ZM145.981 177.727C145.981 182.803 145.019 187.121 143.094 190.682C141.185 194.242 138.579 196.962 135.276 198.841C131.988 200.705 128.291 201.636 124.185 201.636C120.049 201.636 116.337 200.697 113.049 198.818C109.761 196.939 107.162 194.22 105.253 190.659C103.344 187.098 102.39 182.788 102.39 177.727C102.39 172.652 103.344 168.333 105.253 164.773C107.162 161.212 109.761 158.5 113.049 156.636C116.337 154.758 120.049 153.818 124.185 153.818C128.291 153.818 131.988 154.758 135.276 156.636C138.579 158.5 141.185 161.212 143.094 164.773C145.019 168.333 145.981 172.652 145.981 177.727ZM136.003 177.727C136.003 174.439 135.511 171.667 134.526 169.409C133.556 167.152 132.185 165.439 130.412 164.273C128.64 163.106 126.564 162.523 124.185 162.523C121.806 162.523 119.731 163.106 117.958 164.273C116.185 165.439 114.806 167.152 113.822 169.409C112.852 171.667 112.367 174.439 112.367 177.727C112.367 181.015 112.852 183.788 113.822 186.045C114.806 188.303 116.185 190.015 117.958 191.182C119.731 192.348 121.806 192.932 124.185 192.932C126.564 192.932 128.64 192.348 130.412 191.182C132.185 190.015 133.556 188.303 134.526 186.045C135.511 183.788 136.003 181.015 136.003 177.727ZM155.855 154.455L167.105 189.818H167.536L178.809 154.455H189.718L173.673 201H160.991L144.923 154.455H155.855ZM192.12 201V154.455H223.484V162.568H201.961V173.659H221.87V181.773H201.961V192.886H223.575V201H192.12Z" fill="black"/>
<path d="M94.3565 239.332C93.5128 239.332 92.7884 239.034 92.1832 238.438C91.5866 237.832 91.2884 237.108 91.2884 236.264C91.2884 235.429 91.5866 234.713 92.1832 234.116C92.7884 233.52 93.5128 233.222 94.3565 233.222C95.1747 233.222 95.8906 233.52 96.5043 234.116C97.1179 234.713 97.4247 235.429 97.4247 236.264C97.4247 236.827 97.2798 237.342 96.9901 237.811C96.7088 238.271 96.3381 238.642 95.8778 238.923C95.4176 239.196 94.9105 239.332 94.3565 239.332ZM107.332 239.32C105.84 239.32 104.489 238.936 103.279 238.169C102.077 237.393 101.123 236.256 100.416 234.756C99.7167 233.247 99.3673 231.398 99.3673 229.207C99.3673 226.957 99.7295 225.087 100.454 223.595C101.178 222.095 102.141 220.974 103.343 220.233C104.553 219.483 105.879 219.108 107.319 219.108C108.418 219.108 109.335 219.295 110.068 219.67C110.809 220.037 111.406 220.497 111.857 221.051C112.318 221.597 112.667 222.134 112.906 222.662H113.072V212.818H118.505V239H113.136V235.855H112.906C112.65 236.401 112.288 236.942 111.819 237.479C111.359 238.007 110.758 238.446 110.016 238.795C109.283 239.145 108.389 239.32 107.332 239.32ZM109.058 234.986C109.935 234.986 110.677 234.747 111.282 234.27C111.896 233.784 112.364 233.107 112.688 232.237C113.021 231.368 113.187 230.349 113.187 229.182C113.187 228.014 113.025 227 112.701 226.139C112.377 225.278 111.908 224.614 111.295 224.145C110.681 223.676 109.935 223.442 109.058 223.442C108.163 223.442 107.408 223.685 106.795 224.17C106.181 224.656 105.717 225.33 105.401 226.19C105.086 227.051 104.928 228.048 104.928 229.182C104.928 230.324 105.086 231.334 105.401 232.212C105.725 233.081 106.19 233.763 106.795 234.257C107.408 234.743 108.163 234.986 109.058 234.986ZM130.132 239.384C128.112 239.384 126.373 238.974 124.916 238.156C123.467 237.33 122.35 236.162 121.566 234.653C120.782 233.136 120.39 231.342 120.39 229.271C120.39 227.251 120.782 225.479 121.566 223.953C122.35 222.428 123.454 221.239 124.877 220.386C126.309 219.534 127.988 219.108 129.914 219.108C131.21 219.108 132.416 219.317 133.532 219.734C134.657 220.143 135.637 220.761 136.472 221.588C137.316 222.415 137.972 223.455 138.441 224.707C138.91 225.952 139.144 227.409 139.144 229.08V230.575H122.563V227.2H134.018C134.018 226.416 133.847 225.722 133.507 225.116C133.166 224.511 132.693 224.038 132.087 223.697C131.491 223.348 130.796 223.173 130.004 223.173C129.177 223.173 128.444 223.365 127.805 223.749C127.174 224.124 126.68 224.631 126.322 225.27C125.964 225.901 125.781 226.604 125.772 227.379V230.588C125.772 231.56 125.951 232.399 126.309 233.107C126.676 233.814 127.191 234.359 127.856 234.743C128.521 235.126 129.309 235.318 130.221 235.318C130.826 235.318 131.38 235.233 131.883 235.062C132.386 234.892 132.816 234.636 133.174 234.295C133.532 233.955 133.805 233.537 133.992 233.043L139.029 233.375C138.774 234.585 138.249 235.642 137.457 236.545C136.673 237.44 135.659 238.139 134.414 238.642C133.178 239.136 131.751 239.384 130.132 239.384ZM158.678 219.364L151.813 239H145.676L138.811 219.364H144.564L148.642 233.413H148.847L152.912 219.364H158.678Z" fill="black"/>
<line x1="21" y1="225" x2="81.0083" y2="225" stroke="black" stroke-width="2"/>
<line x1="165.004" y1="225.5" x2="225.012" y2="225.5" stroke="black" stroke-width="2"/>
</svg>
