<svg width="122" height="119" viewBox="0 0 122 119" fill="none" xmlns="http://www.w3.org/2000/svg">
<path d="M113.75 0H60.6663C56.4779 0 53.083 3.32053 53.083 7.41667C53.083 11.5128 56.4779 14.8333 60.6663 14.8333H113.75C117.938 14.8333 121.333 11.5128 121.333 7.41667C121.333 3.32053 117.938 0 113.75 0Z" fill="white"/>
<path d="M60.6667 103.833H7.58333C3.39515 103.833 0 107.154 0 111.25C0 115.346 3.39515 118.667 7.58333 118.667H60.6667C64.8551 118.667 68.25 115.346 68.25 111.25C68.25 107.154 64.8551 103.833 60.6667 103.833Z" fill="white"/>
<path d="M121.333 59.3333C121.333 92.1025 94.1723 118.667 60.6667 118.667C27.1614 118.667 0 92.1025 0 59.3333C0 26.5644 27.1614 0 60.6667 0C94.1723 0 121.333 26.5644 121.333 59.3333ZM15.1667 59.3333C15.1667 83.9098 35.5379 103.833 60.6667 103.833C85.7954 103.833 106.167 83.9098 106.167 59.3333C106.167 34.7569 85.7954 14.8333 60.6667 14.8333C35.5379 14.8333 15.1667 34.7569 15.1667 59.3333Z" fill="white"/>
<path d="M60.6667 30.8533L86.9366 45.0933V73.5733L60.6667 87.8133L34.3975 73.5733V45.0933L60.6667 30.8533Z" fill="white"/>
</svg>
